<mxfile host="65bd71144e">
    <diagram id="XMmhGGZaQq1PAAMtieme" name="페이지-1">
        <mxGraphModel dx="1118" dy="555" grid="1" gridSize="10" guides="1" tooltips="1" connect="1" arrows="1" fold="1" page="1" pageScale="1" pageWidth="827" pageHeight="1169" background="#ffffff" math="0" shadow="0">
            <root>
                <mxCell id="0"/>
                <mxCell id="1" parent="0"/>
                <mxCell id="l3lS3MkwC3Y9YtgOnzKA-2" value="" style="shape=image;aspect=fixed;image=data:image/png,iVBORw0KGgoAAAANSUhEUgAAAPAAAADwCAMAAAAJixmgAAAABGdBTUEAALGPC/xhBQAAAAFzUkdCAK7OHOkAAABLUExURUdwTAAAAAAAAAAAAAAAAAAAAAAAAAcHBxQUFAAAAP///wAAAP////X19TY2NhgYGHFxcaurq8/Pz5CQkEhISMDAwObm5l1dXYCAgE9ZUAsAAAALdFJOUwAyR4rpsGz9FMxsGU4ZPAAADsFJREFUeNrsXel6rCgQva7ouCKK/f5POq0sAoJCty0k6frmzyTmJqerKGo5Vf7795WvfOUrX/nKV77yla985Stf+cpXvvKVd6R4yt9BG8c5eEoex38Cbp5VXLL899tyXklS/nItR2mlCIh+s3oTUO0EJL/WfRUlw9j1w9B3DH1Z/HK849DUT2mG8Vcj5nhhzQX+YsQMbyfgreuh/62IGd6+qWX5pYg53nonvxLxAd4N8V/ByxFHfwUvQ2wdc+X5D8db1zNBbHWM4+c/FzTi6Bwvu49tcBRrfBZyypGc43VCbAJcJEkQio9TC7xPxCSwPtVckRmeWw9OAIqPgBVe5riyU4e1Ppbu/FsGwrjMKd7qFG89dTaIiUPQ4KV3ue+rrQC7fMEoA3n0WEeR/lNhVSPvhzi3x1vXrYWK138wVT6UmOk3+VF466bVm6soOitgVTL/sSn5S4AlXnY3HYUficZwQ8Nr4aAVT31wENOdK47CwUvNrxvsAddnrmdFl2hugRDwZu54a1TpnJIgZZpmwndjijf1H3EUr+Ct8XoZA8vbpeB4A8gsyYUJHrWbDJ19wMSrgiHgpX9Mix0B00QxdsGbB1Acoinh2LjirTHRmcXvKEOJroSUcKjdpbdFUWrx+oHPUsLmBcB4cUQgPTfTtS+XRJITK0sv7cgYuEYcOxXbOOooy4QrOYpJhliB+wGX7+CleaJjZpsIfcn7Q0ryu/GLgB0cNf+NpdB+TW/H65QimR21vYpjsd2c3X4pv4uXneJ/LwAu8/tdFg0p38BLax+JI+A0zT1EXK+F0Nr40j5gXC4oKacIP4RW5EG4H/a/Nc89hdMvh9C6pMl7hcr6AI9NXV+h4vDbiZSFdXyAUS8IMjwErKry3nNCYA6hMcaoXUXiaFXka+2IV+EFzM6iRu1fctONBCECQMNJk7A/pYNwev7Hb6bsJ+BVQw7c92PlJk9Tnx1KVXniicuX7qrQzdOMu8VwX5XkiFW9cK6LrCw9NdFoyCHkSBNsdVDbUZC2OjP0LCbCXXbMJAXbOfFg/JESYk397q+f0SKSS2sQkcepskFCRfvd+8vSNOSgePEsK7db2KSHt9WwyNQt8ort339l05CD/PEIyDYMG8tQpFmkX2zdDfb9Fh1vIQfugWzGL8Vdw9PIwRyughPmsfAs6Kab3sialjMwDKijArbjQWV8PkE+kvszpZzQviVjXiy5fl8aKgP16zP7QsM7rB46S8SPTsMGt3Ox5AeNrJ2zStz6cdH0qpg3s0PWCSIehfB6DaodAEM/WZU6qtI6VOD3fgkg64NPcwxfCn7FmLV+GPS2WgZeCgVxKsF1MUnTvdPNDuXNu110IV67ju0kdoVRDyzkyTaIB0+VIOEmQo5eFpKfYhkWRIjf4iOyKwTdD7hgFg1eqGUt8YP0U5hBBhWyUnB6u0Wzvs5LteiGR9kQ0p9venZNIYt6PUh+FN4tlxwX5/wQKXmnlNTZR3OUj1+9hxdwJ7D6+GYkX5gv7bldEnLw8au3wmYg5hvC+TxEPFYeZgGS6q3et0RHY67PEvFLffOLQo438TZysk8R05gEH5/gezksEbgCL71Ou6lnF5LouUaTgj2Usi7CuwIGi9MbHuJ1RBDTM23oId+qYEZ0xFcAppqksy1IoE/PjZk+fy+dI32f2yBouBXTgYcYaWOzRd/qovOr8Ioapr6X9pfNKp7A7YBd6f1ngFt2NoFQ3u5M8dbj9tpdXl3jsFQNU1I8EgwX7N0Wnu+u3eUXxM96DTekQ9MIJ7UN4E5KTXgxflfDJAcigJtZfxWju6NoIzdp6gCCS1fbXcODqD0KmHxr93ua8eZipRkvIKn7UysH/A09Q7rXAV6d9j72IFEHiG/Fq4vre6EoRfgbCJ8bOammIwEwYIDXiHk2nOG7ijvUYbXNEWCRuoEgthg6nLFGw89TPOruYTZffYdVM+5ZYx6J3Tf9j3soSLx7BwnwyUT5Def4CO9aguu0Te0Wng6kkfCKJkmn9QSWWX36HJ+Oq9DOXq/yN8YDsyZel14/lly+obtHxy7jKgt/YwM9nfKFV28smbe+zzjxjvkNiBPH/kLDetbgCDANr8CI0eHD5PMDWD7Hnwyp48MqhN69WJUJePX96GFW+3rInuuThS1Cxup6+wAS2UXdULrKhpNaX3Mf4oR19/CleCXEhoe3J7ZLC1LLSLPP2vTT9Oza1id4n0E3/+DgeNLCGDWA+ekH2YfjrErojLyG90FIp+0Wcq8uaTZ9kEIrWQpL+k9TtSKh39+200GsPLUGvFjidQDeQm8O2HqYDlNIkbaAGFTlx0qYSSnFyivJeaE5Y33DSMWr8PQsZ36IQc+6wJN3Gz9XtM1TXcQ82eCVeXp2fdHF/klxjyhajbSbzyMu8jQ9BmzSL9RmF0eRdjNx+4e1PtJm3caPFuaLLDsAzPCOgz6VVeQg0h4EFlfdmCJtFlp/thURS1OdIuDJuHRID/gg0haY1E/Axkj7HsRPnx1FcUokKSzwPi9Obc48HM9ssYcIYO2nQ751b4O8Ocdb05l3a7f1oOuKabm2MwGG9JfeSjSVSjZGT9RoZz4Mh5gc2n7CZHYAGTSMRi+zAP9JgDu7/rcmeNqZA5aSKrXI9Qxj+OAMuJUbXzRC7GPOF6AD4FF2aePe/CeRvnj3zhYB8WM4KcvaAW41gB9iGCMWSjMPQ7UNo+87kDr24bFSPeAFFnKE+62nJvxDIPMxjBq1cLLuNZxreBrlZlovunQpJs+8wCWsD/QSYl3Xmz417moeSInJS0/7eAjLxWrfgUqU7pp9CsnpeZgKr/N3ojGn/raHxXS2xZY3bA4t5RQSUBG+sCnX5+B85MCCgAeAH73tPGrqdbcU7cK4cMP5/Bq3aDy1bWUN1+8IeeG28QBq8uFpdpg19r4FglDj7WkfcFbwaiZwjeOHZQB7010BP2+ndaKQvOpCnsDtuiQlBYR977UPZvFfWllew0LraRyXwAlDyS0vTXByKw14P8dFbqfM/wqI4kXu5dD3kp+a4UbJa/YaZgF2ACrO3fcs4d0sOZ3AnenhnjSlgiGUV39Ep31R1W3BbjdLLgaR3b4G1mGeNPrXcFy5IJ7U/R7i0CL33gpgkmUPHtjw5maqzRTdzpKXd2xhNblA4sCLyJUiXyxDUXF13FgcoGrJ1UjfsSWVKsFqvbW08KIVGXreABfbZpj8cB6W7FnadZYQ0pdEHmpderP5h8dNPXmZVmlZ0msxZRbaamQfNoJxGLAh6CQKpu4LdJ04qNv7O8Q5p2Zky/aYonTYvjGOw8GcWi+WtVAtjYJBbyvVColdGUnv6TyWvSXLhbte+l916dzoDbDURARW+iUrOLCR3aUsPh11vZjWv4btbJgu4jidoRTKCKQWj/YaBl7yw4SGSKo3yolsFt4jhOyrXa3abVGqfN40TDYAgLEekLIMSiyCWIYjW8ghtS2QSL/zruFtCw9kRJetURsBqxbwvjsK918bw3Ba4mpHSG2xZckMxQtm6xibhhyKT37shhAnn5s+M/43QrLBgLKB44i3ia0Rt9qyGNpNqPU+s4di2x1G3W8jEkUX84SVHeLJ0IXYDSEir7F0VKkm16sFSTvEk4l4CxW352vJEk8egOKGh10B1gbxZCYad/J3oO81n6XC08B7AtY5Yoq3M9ewOyw96bHEkyvMlFksx1kiPmTCSN6bPum1Dp+KiPHMihjayZvJHS/voXfz1lX0WsNj+zzQsDX+dhvxGGLd3NZ09vo8xpnloYznilbOSdRbV9fYTdp/azp/XaDShvFdwct3iVFz0D9T9oNxK4XHfRkxN/Fev0vkcrphNwPk+8GEkwxbC06tyBL23Bamsq8eH3cM6byVUJ0+7aQ3CM3hLNrOAS9oHK7F42cRKIU9O+bAfOvksEWe+IzxTzrivbbDP1oOlcNQWoc8T+xNjRXNWXxlmV7rY6vUURKhL21M61ZSTuqXqXidyzK9IRzA7C1mszGu4K65gduwrevO3tHL6j83xCyuaJVh21Wc++ee3hN2hNgwwaRZQfKCTJW/Ap6x3iO6XAw5e/sSwPTll4EAjnZFWZEdfQlgUt8J5SUfRaIgFvGC4TrAIA8EMd+9TKJlKN65oL5GWu/5vxbx8sqVkdPVrbZzuAAORsNbNWAr1SZRdCXgMRQqnno7CSzQ+GCwwVlIPzH+FyrihHnvqwCTUa+wXjDG16jTYZP4UsChMPHk/DhbheiBEgWuAjwG/4KxArz8PmJjOJ3+CxmwM5XaoumWBA94ugpwWOH0DYDDCqfvAPwI0U1/EnAfVv7wecBT8G9zvRiwTxaPXeAFLgbchlTmMcbWf0jDlwP+ajgwyapPeOk8cA3PV+UOrIGexmEDRhfhnbdB8SJok35cYszieFe4gMuLAG+bEKqAWmomDb9t0tNuejpUwKTC1eI3jVngCyAQ9L3kuu90b8pIZIOgoUFVeIXLPWDg8ppOqf/YqWwQwh8OHbDlvtNdtt/u2CChBx7yy03XV9DaGTdW1np0UyNcxT8FMKHaQnETr9ZJQYgA0M6PD1XgRTyyHADtV+X3B1LJw6hg28PfhK5gwuCa13cEVC+LQKOoAi/Ex3y0rGnm8TW44hKnKbzuoQYw/4PFV9BaSJkn6hKngMh4B4DFZdTkbTpperJMKU2TKGKt1rFtZ4yXc0xYQVkROmC+jJpOmiW8w6iXRKp40p9vISS71QPOhQXAlPvROlEWcnVBYuh30kbeksS6M6SfOo9CBpzr8Fofweytj8sf3l52ztYaoqklQujxQxSc8w3SeBhGGnrYK/j/9s6nBUAQhuI5kZLAgwf7/t80pJpoBv45tMP70XUHWehzzD2dJrR4/7xDl7xFF46BfZaFG5HJnocH6eXKl0Nil+5ngwWXVyyt+PVyw1LomXbG2xVPPDh2cU14H7WOaHwRP9eTIZtMp6/ou4gnWXPoqjyeOoFFtzpUj+DmVgVVE9uraI1VTXF7cVWZ8d/jvxzbmQmrVIaLX++SmV/EG99AuOFoWgAAAAAAAAAAAADaOQE/mKZdrAR9TgAAAABJRU5ErkJggg==;verticalAlign=bottom;" parent="1" vertex="1">
                    <mxGeometry x="630" y="170" width="90" height="90" as="geometry"/>
                </mxCell>
                <mxCell id="l3lS3MkwC3Y9YtgOnzKA-3" value="Twitter Search" style="rounded=0;whiteSpace=wrap;html=1;fillColor=#f9f7ed;strokeColor=#36393d;" parent="1" vertex="1">
                    <mxGeometry x="50" y="180" width="240" height="140" as="geometry"/>
                </mxCell>
                <mxCell id="l3lS3MkwC3Y9YtgOnzKA-4" value="" style="shape=datastore;whiteSpace=wrap;html=1;" parent="1" vertex="1">
                    <mxGeometry x="126" y="470" width="60" height="60" as="geometry"/>
                </mxCell>
                <mxCell id="l3lS3MkwC3Y9YtgOnzKA-5" value="" style="sketch=0;outlineConnect=0;fontColor=#232F3E;gradientColor=none;fillColor=#232F3D;strokeColor=none;dashed=0;verticalLabelPosition=bottom;verticalAlign=top;align=center;html=1;fontSize=12;fontStyle=0;aspect=fixed;pointerEvents=1;shape=mxgraph.aws4.user;" parent="1" vertex="1">
                    <mxGeometry x="131" y="40" width="78" height="78" as="geometry"/>
                </mxCell>
                <mxCell id="l3lS3MkwC3Y9YtgOnzKA-6" value="" style="shape=datastore;whiteSpace=wrap;html=1;" parent="1" vertex="1">
                    <mxGeometry x="460" y="275" width="60" height="60" as="geometry"/>
                </mxCell>
                <mxCell id="2" value="" style="shape=image;verticalLabelPosition=bottom;labelBackgroundColor=#ffffff;verticalAlign=top;aspect=fixed;imageAspect=0;image=https://softprodigy.com/wp-content/uploads/2019/07/express-js.png;" vertex="1" parent="1">
                    <mxGeometry x="430" y="85" width="115" height="115" as="geometry"/>
                </mxCell>
            </root>
        </mxGraphModel>
    </diagram>
</mxfile>